PathFileType	4	(X/Y/Z)	C:\Users\Basilio\Documents\Thesis Gigler\squatting_fais\c3dfiles\073\SJ_pre2\markers_experimental.trc
DataRate	CameraRate	NumFrames	NumMarkers	Units	OrigDataRate	OrigDataStartFrame	OrigNumFrames
200.000000	200.000000	4	61	mm	200.000000	378	1514
Frame#	Time	FHD			LBHD			RBHD			C7			T10			CLAV			LSHO			LUUPA			LMUPA			LDUPA			LLEP			LMEP			LRAD			LUL			LRFIN			RSHO			RUPA1			RMUPA			RDUPA			RLEP			RMEP			RRAD			RUL			RUFIN			LASI			RASI			USACR			LSACR			RSACR			LTHI1			LTHI2			LTHI3			LTHI4			LLFC			LMFC			LTIB1			LTIB2			LTIB3			LTIB4			LLMAL			LMMAL			LHEE			LMT1			LMT2			LMT5			RTHI			RTHI2			RTHI3			RTHI4			RLFC			RMFC			RTIB1			RTIB2			RTIB3			RTIB4			RLMAL			RMMAL			RHEE			RMT1			RMT2			RMT5			
		X1	Y1	Z1	X2	Y2	Z2	X3	Y3	Z3	X4	Y4	Z4	X5	Y5	Z5	X6	Y6	Z6	X7	Y7	Z7	X8	Y8	Z8	X9	Y9	Z9	X10	Y10	Z10	X11	Y11	Z11	X12	Y12	Z12	X13	Y13	Z13	X14	Y14	Z14	X15	Y15	Z15	X16	Y16	Z16	X17	Y17	Z17	X18	Y18	Z18	X19	Y19	Z19	X20	Y20	Z20	X21	Y21	Z21	X22	Y22	Z22	X23	Y23	Z23	X24	Y24	Z24	X25	Y25	Z25	X26	Y26	Z26	X27	Y27	Z27	X28	Y28	Z28	X29	Y29	Z29	X30	Y30	Z30	X31	Y31	Z31	X32	Y32	Z32	X33	Y33	Z33	X34	Y34	Z34	X35	Y35	Z35	X36	Y36	Z36	X37	Y37	Z37	X38	Y38	Z38	X39	Y39	Z39	X40	Y40	Z40	X41	Y41	Z41	X42	Y42	Z42	X43	Y43	Z43	X44	Y44	Z44	X45	Y45	Z45	X46	Y46	Z46	X47	Y47	Z47	X48	Y48	Z48	X49	Y49	Z49	X50	Y50	Z50	X51	Y51	Z51	X52	Y52	Z52	X53	Y53	Z53	X54	Y54	Z54	X55	Y55	Z55	X56	Y56	Z56	X57	Y57	Z57	X58	Y58	Z58	X59	Y59	Z59	X60	Y60	Z60	X61	Y61	Z61	

379	1.89	-19.01200675964356	1394.036499023438	-990.2617797851565	-157.7080078125	1379.212280273438	-1005.407348632813	-174.253890991211	1366.834594726563	-871.2627563476565	-213.0177917480469	1311.749267578125	-931.8292236328127	-465.8263244628907	1085.110717773438	-922.8027954101565	-163.5111999511719	1168.37353515625	-935.7586059570315	-170.7121887207032	1201.021850585938	-1102.859497070313	-271.0544738769532	1170.999145507813	-1225.175170898438	-283.7644653320313	1122.7978515625	-1228.568481445313	-318.0524291992188	1148.072143554688	-1272.765502929688	-394.1209716796876	1095.892333984375	-1326.660034179688	-464.7603149414064	1130.595703125	-1295.263427734375	-468.8587036132814	905.184020996094	-1157.992065429688	-432.9555969238282	861.9492797851565	-1207.718139648438	-443.4627990722657	890.7734985351565	-1106.729614257813	-148.4345855712891	1185.155883789063	-770.918151855469	-244.3317871093751	1159.983276367188	-619.4683837890626	-260.1651306152344	1113.605346679688	-614.0914916992189	-291.7284240722657	1142.209838867188	-571.4642944335939	-353.0376586914063	1089.798950195313	-521.0061035156251	-429.1266479492189	1128.503173828125	-562.2026977539064	-482.1480712890626	908.5297851562502	-672.7598266601564	-439.0455627441407	862.116882324219	-631.6242675781251	-441.6056518554689	888.5803222656252	-729.6608886718751	-414.8044738769532	875.0513916015627	-1052.0751953125	-407.725067138672	862.0561523437502	-808.8076782226565	-551.2996215820314	991.5036621093752	-915.404724121094	-573.4923706054689	970.3604736328127	-943.7891845703127	-576.1654052734376	968.0699462890627	-887.1948242187502	-359.7291564941407	650.4506835937501	-1165.638671875	-286.0989685058594	605.9866943359376	-1168.581665039063	-250.4077148437501	628.3795776367189	-1141.219970703125	-281.1388244628907	546.7926025390626	-1162.150512695313	-262.0747680664063	493.3111877441407	-1173.220581054688	-249.3674774169922	476.3049621582032	-1044.7119140625	-253.7234954833985	292.4680175781251	-1141.614013671875	-326.5541381835938	276.3450317382813	-1189.27734375	-290.6610412597657	256.7808837890626	-1172.697875976563	-312.0964050292969	180.361068725586	-1141.9658203125	-409.8278198242189	84.9900588989258	-1170.09912109375	-388.8477172851564	105.6005859375	-1083.758422851563	-468.1016845703126	50.17314910888673	-1125.424194335938	-239.4139709472657	55.42428588867189	-1107.944458007813	-242.1796569824219	54.55069732666017	-1146.249267578125	-280.2052612304688	34.92783355712891	-1199.500854492188	-435.6863098144532	693.6045532226564	-686.1084594726564	-376.4714660644532	668.1649780273439	-670.8770141601564	-348.4335021972657	685.8079833984376	-677.5172119140626	-354.9433593750001	585.6768188476564	-673.6239624023439	-276.8998718261719	471.4231872558595	-658.7597045898439	-253.6231079101563	445.595916748047	-781.1814575195315	-273.6722412109376	301.0876159667969	-727.8269042968751	-332.0257263183594	241.9872283935547	-658.0155029296876	-306.1636352539063	227.8894348144532	-695.9218139648439	-336.8484802246094	188.566650390625	-727.1085205078126	-428.8013000488282	85.08142852783205	-666.3199462890626	-411.1434936523439	99.32476806640628	-754.9030761718751	-497.0238647460939	43.75629806518555	-722.8087768554689	-269.5119628906251	57.8952980041504	-699.3927001953126	-275.3940124511719	58.29491424560548	-659.0718383789064	-321.2790222167969	34.2868881225586	-616.3958740234376	
380	1.895	-17.49447441101075	1389.898681640625	-990.5947265625002	-156.2574920654297	1374.944213867188	-1005.957702636719	-172.8504028320313	1362.57421875	-871.8059692382815	-211.3703155517579	1307.808227539063	-932.3318481445315	-465.2713928222657	1082.5009765625	-922.9748535156252	-162.3668060302735	1164.30712890625	-936.1250000000002	-169.4990692138672	1196.8525390625	-1103.454345703125	-269.8169860839844	1167.255249023438	-1225.677368164063	-282.9483947753907	1119.1640625	-1229.088256835938	-316.9733886718751	1144.768798828125	-1273.241577148438	-392.9031372070314	1092.958374023438	-1327.4013671875	-463.6423950195314	1127.957275390625	-1296.002197265625	-468.9945373535157	902.7481079101565	-1158.257934570313	-433.3022766113282	859.4033813476565	-1207.889526367188	-444.034149169922	888.724792480469	-1106.917846679688	-147.2257080078125	1180.989379882813	-771.3670043945315	-243.1611938476563	1156.409912109375	-619.9430541992189	-259.2409667968751	1110.069946289063	-614.5197753906251	-290.5848083496094	1138.868286132813	-571.7982788085939	-352.2062988281251	1086.910278320313	-521.3830566406251	-428.1074218750001	1126.050537109375	-562.4962158203126	-482.5369567871095	906.268005371094	-672.9872436523439	-439.3743896484376	859.7214965820315	-631.9118041992189	-442.3201904296876	886.314147949219	-730.1295776367189	-415.565399169922	872.4157714843752	-1052.211303710938	-408.3167724609376	859.4503173828127	-809.0676269531252	-551.2977905273439	989.546569824219	-915.5646972656252	-574.8591918945314	968.7854614257815	-943.6557617187502	-576.1235351562501	966.132751464844	-887.347106933594	-359.2744750976563	649.5062866210939	-1165.827026367188	-285.3624877929688	605.5913085937501	-1168.672729492188	-250.0484313964844	628.0225219726564	-1141.116088867188	-280.1406860351563	546.3602294921876	-1162.31494140625	-261.1287231445313	492.8613891601564	-1173.335815429688	-248.090316772461	475.7060546875001	-1044.745483398438	-253.1133728027344	292.0910644531251	-1141.917114257813	-326.0374450683594	276.1462707519532	-1189.276245117188	-290.1536865234376	256.4913024902344	-1172.673583984375	-311.7550964355469	180.0464019775391	-1141.9638671875	-409.7409057617189	84.98768615722658	-1170.074096679688	-388.7657775878907	105.5566024780274	-1083.63525390625	-468.1307678222657	50.17846679687501	-1125.39013671875	-239.3708648681641	55.4233741760254	-1107.943725585938	-242.1338653564454	54.59249877929689	-1146.265991210938	-280.1968994140626	34.92546844482423	-1199.496337890625	-435.9940185546876	691.6973266601564	-686.1339111328126	-376.5046691894532	666.6701660156251	-671.1465454101564	-348.6531372070313	684.3865966796876	-677.3397216796876	-354.5098876953126	584.3171386718751	-673.5429077148439	-275.9888000488282	470.7628479003907	-658.6400146484376	-253.0877838134766	445.0354614257814	-780.5041503906252	-272.7842102050782	300.6232299804688	-727.6279296875001	-331.4550476074219	241.6058502197266	-658.0117797851564	-305.7551269531251	227.5398864746094	-695.9074707031251	-336.5019531250001	188.3752593994141	-727.0662231445314	-428.7911071777345	85.07395935058595	-666.4419555664064	-410.9761657714845	99.23297119140628	-755.0151977539064	-496.991668701172	43.75652694702149	-722.9635009765626	-269.5539855957032	57.81384277343751	-699.1380004882814	-275.5028076171876	58.30574798583986	-658.8727416992189	-321.4410705566407	34.34350585937501	-616.2191162109376	
381	1.9	-16.59748268127442	1385.746704101563	-991.1999511718752	-154.7886505126953	1370.597045898438	-1006.424072265625	-171.3718414306641	1358.428833007813	-872.449401855469	-209.7168579101563	1303.886596679688	-932.8253173828127	-464.5779418945314	1079.850830078125	-923.225280761719	-161.2298126220703	1160.142333984375	-936.5842285156252	-168.2372131347657	1192.501098632813	-1103.886474609375	-268.6293945312501	1163.6279296875	-1226.084594726563	-282.0291442871094	1115.680297851563	-1229.567993164063	-315.6506958007813	1141.463500976563	-1273.638916015625	-391.8898315429689	1089.995239257813	-1327.807739257813	-462.3919372558595	1125.42578125	-1296.79052734375	-469.7698364257814	900.6551513671877	-1158.50390625	-433.3873596191407	856.8286132812502	-1207.871948242188	-444.3169860839845	886.6343994140627	-1107.072265625	-145.9851684570313	1176.85302734375	-771.7894287109377	-241.9496154785157	1152.838134765625	-620.3688964843751	-258.3092651367188	1106.591186523438	-614.8806152343751	-289.4294738769532	1135.597900390625	-572.1859130859376	-351.3513488769532	1083.983276367188	-521.6133422851564	-427.0254211425782	1123.515258789063	-562.7894287109376	-483.0746459960939	904.2540283203127	-673.3182983398439	-439.7489624023439	857.3323364257815	-632.3582763671876	-442.6076049804689	884.1060180664065	-730.3135986328126	-416.2996826171876	869.7504882812502	-1052.34716796875	-408.7673645019532	856.943542480469	-809.253601074219	-551.2980957031251	987.315368652344	-915.6761474609377	-574.8896484375001	966.7859497070315	-943.8282470703127	-576.3208007812501	964.1152343750002	-887.503601074219	-359.0242919921876	648.4989013671876	-1165.858520507813	-284.6681213378907	604.9686279296876	-1168.648559570313	-249.7515563964844	627.5787353515626	-1140.944946289063	-279.3022155761719	545.7463378906251	-1162.482421875	-260.0542907714844	492.443328857422	-1173.364013671875	-246.9004516601563	475.2529296875001	-1044.7314453125	-252.5290222167969	291.6813354492188	-1142.099365234375	-325.5051574707032	275.9176025390626	-1189.274047851563	-289.3937377929688	256.2674865722657	-1172.532592773438	-311.5206909179688	179.7368316650391	-1141.907470703125	-409.6610717773439	84.9908905029297	-1170.031982421875	-388.6738281250001	105.5133285522461	-1083.553344726563	-468.0986938476564	50.16896057128908	-1125.3583984375	-239.3323059082032	55.40442657470705	-1107.954467773438	-242.1511688232422	54.51961517333986	-1146.286010742188	-280.1918945312501	34.94694519042969	-1199.460693359375	-436.1368713378907	689.7946777343751	-686.3746337890626	-376.6135559082032	665.0468750000001	-670.9977416992189	-348.7883911132813	682.9852294921876	-677.2415771484376	-354.0848999023438	582.8720092773439	-673.4551391601564	-275.0895385742188	470.1141662597657	-658.5799560546876	-251.9951324462891	444.4893188476564	-780.3635253906252	-272.0783996582032	300.3034973144532	-727.5503540039064	-330.9598388671876	241.2331237792969	-657.9808349609376	-305.4335327148438	227.1621856689454	-695.9989624023439	-336.0183105468751	188.0765991210938	-727.0554199218751	-428.7630004882814	85.11213684082033	-666.5495605468751	-410.7594604492189	99.17829895019534	-755.1298217773439	-497.0355529785157	43.79896545410157	-723.1246948242189	-269.5083923339844	57.8135452270508	-698.9427490234376	-275.6045227050782	58.31853485107423	-658.6887207031251	-321.5830383300782	34.36751556396485	-616.1285400390626	
382	1.905	-14.49962711334229	1381.596435546875	-991.8076171875002	-153.2326202392578	1366.298095703125	-1006.986145019531	-169.9928588867188	1354.15087890625	-872.9446411132815	-208.0877075195313	1299.902954101563	-933.3499755859377	-463.9270324707032	1077.29345703125	-923.4698486328127	-160.2003631591797	1156.05615234375	-937.0429687500002	-166.9767608642578	1188.2607421875	-1104.21630859375	-267.4112548828126	1159.9345703125	-1226.371826171875	-280.9520568847657	1112.16748046875	-1230.087890625	-314.4010009765626	1138.195922851563	-1274.008056640625	-390.9408569335939	1086.965942382813	-1328.31640625	-461.2565307617189	1122.822509765625	-1297.4619140625	-469.879852294922	898.5320434570315	-1158.8369140625	-433.6874389648439	854.4829711914065	-1207.821655273438	-444.7406005859376	884.559753417969	-1107.28955078125	-144.8467102050782	1172.828002929688	-772.3442382812502	-240.7397766113282	1149.323364257813	-620.7573242187501	-257.3893127441407	1103.140014648438	-615.2745971679689	-288.3042297363282	1132.314453125	-572.5151977539064	-350.4934997558594	1081.055053710938	-521.7985229492189	-425.9309997558595	1121.032958984375	-563.0150756835939	-482.952606201172	902.1173095703127	-673.2790527343751	-440.1236572265626	855.0162353515627	-632.6141357421876	-442.6569213867189	882.074157714844	-730.5341186523439	-416.6509094238282	867.4117431640627	-1052.38134765625	-409.1493225097657	854.3048095703127	-809.3906860351565	-551.2632446289064	985.2436523437502	-915.780212402344	-573.4726562500001	964.3255004882815	-944.217224121094	-576.4915161132814	962.0777587890627	-887.6396484375002	-358.7632446289063	647.5004272460939	-1166.023803710938	-284.0286560058594	604.4050903320314	-1168.674926757813	-249.4156188964844	627.0621337890626	-1140.832397460938	-278.3203735351563	545.0904541015626	-1162.610961914063	-258.9876098632813	491.9158630371095	-1173.374145507813	-245.6428985595704	474.8281555175782	-1044.84912109375	-252.0552062988282	291.1742858886719	-1141.916015625	-325.0055847167969	275.6363830566407	-1189.306762695313	-288.6689453125001	255.7499237060547	-1172.385131835938	-311.3213195800782	179.5062408447266	-1141.842651367188	-409.6663208007814	84.96982574462892	-1169.985961914063	-388.6251220703126	105.4993896484375	-1083.513916015625	-468.1306762695314	50.19484329223634	-1125.315185546875	-239.3347167968751	55.4188690185547	-1107.863159179688	-242.1214904785157	54.5544891357422	-1146.285400390625	-280.1932067871094	35.00098419189454	-1199.425415039063	-436.3273315429689	687.9465942382814	-686.4027709960939	-376.6940917968751	663.5642089843751	-670.7988891601564	-348.9071350097657	681.7199707031251	-677.2285156250001	-353.5809020996094	581.5233154296876	-673.4060058593751	-274.0123596191407	469.4346618652345	-658.4285278320314	-250.4178161621094	443.9636230468751	-780.600524902344	-271.3908691406251	299.8821716308594	-727.5423583984376	-330.4416198730469	240.9329223632813	-657.9724121093751	-304.9752807617188	226.7629699707032	-696.0253295898439	-335.6474304199219	187.8248138427735	-727.1173095703126	-428.7373352050782	85.10375976562501	-666.6657714843751	-410.6011047363282	99.11134338378909	-755.2795410156251	-497.0082397460939	43.83605957031251	-723.2411499023439	-269.5552978515626	57.72863006591798	-698.8464965820314	-275.6982421875001	58.3126564025879	-658.5487670898439	-321.7008666992188	34.42500686645509	-615.9842529296876	
